#N canvas 324 186 1920 976 12;
#X obj 204 291 dac~;
#X obj 204 172 osc~;
#X floatatom 267 205 5 0 0 0 - - - 0;
#X floatatom 204 128 5 0 0 0 - - - 0;
#X obj 204 230 *~;
#X connect 1 0 4 0;
#X connect 2 0 4 1;
#X connect 3 0 1 0;
#X connect 4 0 0 0;
#X connect 4 0 0 1;
