#N canvas 17 185 1920 976 12;
#X obj 563 78 osc~ 250;
#X obj 671 78 osc~ 440;
#X obj 781 76 osc~ 700;
#X obj 420 344 bp~ 1000 1;
#X floatatom 469 433 5 0 0 0 - - - 0;
#X obj 488 394 hsl 162 19 10 10000 1 0 empty empty Pass\ range -2 -10 0 12 #fcfcfc #000000 #000000 0 1;
#X floatatom 509 344 5 0 0 0 - - - 0;
#X obj 559 343 bp~ 1000 1;
#X floatatom 730 445 5 0 0 0 - - - 0;
#X obj 748 388 hsl 162 19 10 10000 1 0 empty empty Pass\ range -2 -10 0 12 #fcfcfc #000000 #000000 0 1;
#X floatatom 650 344 5 0 0 0 - - - 0;
#X obj 698 340 bp~ 1000 1;
#X floatatom 955 437 5 0 0 0 - - - 0;
#X obj 984 386 hsl 162 19 10 10000 1 0 empty empty Pass\ range -2 -10 0 12 #fcfcfc #000000 #000000 0 1;
#X floatatom 816 342 5 0 0 0 - - - 0;
#X obj 431 537 +~;
#X obj 583 575 +~;
#X obj 590 693 *~;
#X obj 593 786 dac~;
#X obj 692 625 hsl 162 19 0.01 1 1 0 empty empty empty -2 -10 0 12 #fcfcfc #000000 #000000 0 1;
#X obj 435 37 adc~;
#X obj 523 177 *~;
#X obj 586 175 *~;
#X obj 435 88 *~;
#X floatatom 476 84 5 0 0 0 - - - 0;
#X obj 662 176 *~;
#X connect 0 0 21 1;
#X connect 1 0 22 0;
#X connect 2 0 25 0;
#X connect 3 0 15 0;
#X connect 4 0 3 1;
#X connect 5 0 4 0;
#X connect 6 0 3 2;
#X connect 7 0 15 0;
#X connect 8 0 7 1;
#X connect 9 0 8 0;
#X connect 10 0 7 2;
#X connect 11 0 16 1;
#X connect 12 0 11 1;
#X connect 13 0 12 0;
#X connect 14 0 11 2;
#X connect 15 0 16 0;
#X connect 16 0 17 0;
#X connect 17 0 18 0;
#X connect 17 0 18 1;
#X connect 19 0 17 1;
#X connect 20 0 23 0;
#X connect 21 0 3 0;
#X connect 21 0 7 0;
#X connect 21 0 11 0;
#X connect 22 0 3 0;
#X connect 22 0 7 0;
#X connect 22 0 11 0;
#X connect 23 0 21 0;
#X connect 23 0 22 0;
#X connect 23 0 25 0;
#X connect 24 0 23 1;
#X connect 25 0 3 0;
#X connect 25 0 7 0;
#X connect 25 0 11 0;
